<?xml version="1.0" encoding="UTF-8" standalone="no"?><!DOCTYPE svg PUBLIC "-//W3C//DTD SVG 1.1//EN" "http://www.w3.org/Graphics/SVG/1.1/DTD/svg11.dtd"><svg width="100%" height="100%" viewBox="0 0 20 20" version="1.1" xmlns="http://www.w3.org/2000/svg" xmlns:xlink="http://www.w3.org/1999/xlink" xml:space="preserve" xmlns:serif="http://www.serif.com/" style="fill-rule:evenodd;clip-rule:evenodd;stroke-linejoin:round;stroke-miterlimit:2;"><path d="M9.994,2.672c-0.015,0 -0.029,-0.004 -0.043,-0.004c-4.045,0 -7.323,3.278 -7.323,7.323c0,4.044 3.278,7.323 7.323,7.323c4.044,0 7.323,-3.279 7.323,-7.323l-7.28,0l0,-7.319Z" style="fill-rule:nonzero;"/><path d="M18.164,4.401l0.806,-0.806l0,-0.627l-1.964,-1.964l-0.626,0l-0.803,0.803c1,0.717 1.875,1.591 2.587,2.594" style="fill-rule:nonzero;"/><path d="M1.773,4.36l-0.806,-0.806l0,-0.627l1.964,-1.964l0.626,-0l0.803,0.803c-1,0.717 -1.875,1.591 -2.587,2.594" style="fill-rule:nonzero;"/><path d="M9.991,1.562c4.648,-0 8.429,3.781 8.429,8.429c-0,4.647 -3.781,8.429 -8.429,8.429c-4.648,-0 -8.429,-3.782 -8.429,-8.429c-0,-4.648 3.781,-8.429 8.429,-8.429m-0,-1.562c-5.518,-0 -9.991,4.473 -9.991,9.991c-0,5.517 4.473,9.99 9.991,9.99c5.518,-0 9.99,-4.473 9.99,-9.99c-0,-5.518 -4.472,-9.991 -9.99,-9.991" style="fill-rule:nonzero;"/></svg>