<?xml version="1.0" encoding="UTF-8" standalone="no"?><!DOCTYPE svg PUBLIC "-//W3C//DTD SVG 1.1//EN" "http://www.w3.org/Graphics/SVG/1.1/DTD/svg11.dtd"><svg width="100%" height="100%" viewBox="0 0 19 20" version="1.1" xmlns="http://www.w3.org/2000/svg" xmlns:xlink="http://www.w3.org/1999/xlink" xml:space="preserve" xmlns:serif="http://www.serif.com/" style="fill-rule:evenodd;clip-rule:evenodd;stroke-linejoin:round;stroke-miterlimit:2;"><path d="M16.578,17.187l-14.023,-0c-0.318,0.318 -0.497,0.497 -0.815,0.815l0,1.164l15.653,-0l0,-1.164c-0.318,-0.318 -0.497,-0.497 -0.815,-0.815" style="fill:#231f20;fill-rule:nonzero;"/><path d="M11.074,8.847c0.276,0.367 0.492,0.779 0.636,1.214c0.152,0.461 0.226,0.887 0.226,1.304c-0,0.076 -0.003,0.152 -0.007,0.229l5.52,1.066c0.371,-0.949 0.582,-1.979 0.582,-3.06c-0,-2.145 -0.807,-4.096 -2.126,-5.583l-4.831,4.83Z" style="fill:#231f20;fill-rule:nonzero;"/><path d="M7.755,10.728c-0.352,0 -0.636,0.285 -0.636,0.637c0,0.351 0.284,0.636 0.636,0.636c0.352,0 0.637,-0.285 0.637,-0.636c0,-0.352 -0.285,-0.637 -0.637,-0.637" style="fill:#231f20;fill-rule:nonzero;"/><path d="M8.392,11.365c-0,0.352 -0.285,0.637 -0.637,0.637c-0.351,-0 -0.636,-0.285 -0.636,-0.637c-0,-0.352 0.285,-0.637 0.636,-0.637c0.352,-0 0.637,0.285 0.637,0.637" style="fill:#231f20;fill-rule:nonzero;"/><path d="M15.66,2.177c-1.654,-1.353 -3.756,-2.177 -6.06,-2.177c-5.302,-0 -9.6,4.297 -9.6,9.599c-0,0.025 0.004,0.049 0.004,0.073l3.947,-0c0.665,-1.503 2.146,-2.487 3.804,-2.487c0.925,-0 1.801,0.301 2.522,0.857l5.443,-5.443l-0.06,-0.422Z" style="fill:#231f20;fill-rule:nonzero;"/><path d="M17.602,13.843l-6.409,-1.238c-0.307,-0.059 -0.508,-0.355 -0.45,-0.662c0.04,-0.208 0.059,-0.396 0.059,-0.578c0,-0.295 -0.054,-0.605 -0.169,-0.949c-0.147,-0.448 -0.401,-0.863 -0.733,-1.199c-0.001,-0 -0.001,-0.001 -0.001,-0.001c-0.572,-0.58 -1.334,-0.898 -2.144,-0.898c-1.308,-0 -2.465,0.843 -2.879,2.098c-0.077,0.232 -0.294,0.389 -0.538,0.389l-4.253,-0c0.258,2.044 1.155,3.886 2.489,5.322l14.051,-0c0.406,-0.437 0.754,-0.922 1.074,-1.428l-0.097,-0.856Zm-13.418,1.117c0,0.07 -0.057,0.128 -0.128,0.128l-0.77,-0c-0.071,-0 -0.129,-0.058 -0.129,-0.128l0,-1.798c0,-0.071 0.058,-0.128 0.129,-0.128l0.77,-0c0.071,-0 0.128,0.057 0.128,0.128l0,1.798Zm1.721,-0c0,0.07 -0.058,0.128 -0.129,0.128l-0.77,-0c-0.071,-0 -0.128,-0.058 -0.128,-0.128l0,-0.771c0,-0.071 0.057,-0.128 0.128,-0.128l0.77,-0c0.071,-0 0.129,0.057 0.129,0.128l0,0.771Zm1.85,-1.826c-0.976,-0 -1.769,-0.794 -1.769,-1.769c0,-0.975 0.793,-1.769 1.769,-1.769c0.975,-0 1.769,0.794 1.769,1.769c0,0.975 -0.794,1.769 -1.769,1.769" style="fill:#231f20;fill-rule:nonzero;"/></svg>