<?xml version="1.0" encoding="UTF-8" standalone="no"?><!DOCTYPE svg PUBLIC "-//W3C//DTD SVG 1.1//EN" "http://www.w3.org/Graphics/SVG/1.1/DTD/svg11.dtd"><svg width="100%" height="100%" viewBox="0 0 13 20" version="1.1" xmlns="http://www.w3.org/2000/svg" xmlns:xlink="http://www.w3.org/1999/xlink" xml:space="preserve" xmlns:serif="http://www.serif.com/" style="fill-rule:evenodd;clip-rule:evenodd;stroke-linejoin:round;stroke-miterlimit:2;"><g><path d="M6.21,0.79c1.42,-0 2.31,0.57 2.31,1.1l0,3.35c0,0.13 0.02,0.26 0.06,0.38l2.89,8.63c0.13,0.34 0.2,0.67 0.2,1c0,2.11 -2.44,3.82 -5.45,3.82c-3.01,0 -5.45,-1.71 -5.45,-3.82c0,-0.33 0.07,-0.67 0.2,-1.02l2.87,-8.62c0.04,-0.12 0.06,-0.25 0.06,-0.38l0,-3.35c0,-0.53 0.88,-1.1 2.31,-1.1m0,-0.78c-1.79,0 -3.08,0.79 -3.08,1.88l0,3.35c0,0 0,0.09 -0.02,0.14l-2.87,8.61c-0.16,0.41 -0.24,0.84 -0.24,1.27c0,2.54 2.79,4.6 6.22,4.6c3.43,0 6.22,-2.06 6.22,-4.6c0,-0.43 -0.08,-0.86 -0.25,-1.28l-2.88,-8.6c0,0 -0.02,-0.09 -0.02,-0.14l0,-3.35c0,-1.09 -1.3,-1.88 -3.08,-1.88Z" style="fill:#fff;fill-rule:nonzero;"/><path d="M6.21,1.15c1.05,-0 1.84,0.39 1.84,0.74c0,0.35 -0.78,0.74 -1.84,0.74c-1.06,-0 -1.84,-0.39 -1.84,-0.74c0,-0.35 0.78,-0.74 1.84,-0.74Z" style="fill:#fff;fill-rule:nonzero;"/><path d="M3.24,9.82l0,-0.02c0,-0.01 0.03,-0.03 0.04,-0.05c0.27,-0.3 0.87,-0.62 1.73,-0.78c0.04,-0 0.08,-0.01 0.12,-0.02c0.14,-0.02 0.29,-0.05 0.44,-0.06c0.2,-0.02 0.42,-0.03 0.64,-0.03c0.22,-0 0.44,0.01 0.64,0.03c0.15,0.01 0.29,0.04 0.43,0.06c0.04,-0 0.09,0.01 0.13,0.02c0.85,0.16 1.45,0.48 1.72,0.77c0.02,0.02 0.04,0.04 0.05,0.06l0,0.01c0.03,0.05 0.05,0.11 0.05,0.15c0,0.39 -1.15,1.11 -3.04,1.11c-1.89,-0 -3.04,-0.72 -3.04,-1.11c0,-0.05 0.02,-0.1 0.05,-0.15l0.04,0.01Z" style="fill:#fff;fill-rule:nonzero;"/><path d="M10.86,14.67l-1.31,-3.94c-0.59,0.59 -1.85,1.01 -3.32,1.01c-1.47,-0 -2.73,-0.41 -3.32,-1.01l-1.31,3.94c-0.08,0.25 -0.12,0.49 -0.1,0.72c0.1,1.59 2.23,2.88 4.74,2.88c2.51,-0 4.64,-1.29 4.74,-2.88c0.01,-0.23 -0.02,-0.47 -0.1,-0.72l-0.02,-0Zm-4.25,0.52c-0.35,-0 -0.63,-0.28 -0.63,-0.63c0,-0.35 0.28,-0.63 0.63,-0.63c0.35,-0 0.63,0.28 0.63,0.63c0,0.35 -0.28,0.63 -0.63,0.63Zm1.53,0.91c-0.25,-0 -0.45,-0.2 -0.45,-0.45c0,-0.25 0.2,-0.45 0.45,-0.45c0.25,-0 0.45,0.2 0.45,0.45c0,0.25 -0.2,0.45 -0.45,0.45Zm0.36,-1.97c-0.5,-0 -0.91,-0.41 -0.91,-0.91c0,-0.5 0.41,-0.91 0.91,-0.91c0.5,-0 0.91,0.41 0.91,0.91c0,0.5 -0.41,0.91 -0.91,0.91Z" style="fill:#fff;fill-rule:nonzero;"/></g></svg>