<?xml version="1.0" encoding="UTF-8" standalone="no"?><!DOCTYPE svg PUBLIC "-//W3C//DTD SVG 1.1//EN" "http://www.w3.org/Graphics/SVG/1.1/DTD/svg11.dtd"><svg width="100%" height="100%" viewBox="0 0 31 32" version="1.1" xmlns="http://www.w3.org/2000/svg" xmlns:xlink="http://www.w3.org/1999/xlink" xml:space="preserve" xmlns:serif="http://www.serif.com/" style="fill-rule:evenodd;clip-rule:evenodd;stroke-linejoin:round;stroke-miterlimit:2;"><g><path d="M21.13,20.02l-4.55,-2.65l0.02,0.86c0.15,0.08 0.28,0.17 0.38,0.31c0.16,0.23 0.22,0.5 0.18,0.78l-0.22,1.28l5.34,3.4l0.95,0l-1.38,-4.08l-0.71,0.1l-0.01,-0Z" style="fill:#fff;fill-rule:nonzero;"/><path d="M7.87,13.76l-1.03,0.35l-4.37,1.48c0.12,0.18 0.21,0.37 0.26,0.58l3.85,-1.3l0.61,-0.21l0.89,-0.3c0.17,-0.06 0.25,-0.24 0.2,-0.4c-0.06,-0.17 -0.24,-0.25 -0.4,-0.2l-0.01,0Z" style="fill:#fff;fill-rule:nonzero;"/><path d="M8.31,15.05l-0.06,0.02l6.77,4.32l0.07,-0.42c0.05,-0.27 0.2,-0.51 0.43,-0.67c0.11,-0.08 0.22,-0.12 0.35,-0.16l-0.02,-1.19l-8.64,-5.03l0,1.3l0.43,-0.15c0.54,-0.19 1.14,0.11 1.32,0.65c0.18,0.55 -0.11,1.14 -0.65,1.32l0,0.01Z" style="fill:#fff;fill-rule:nonzero;"/><path d="M5.03,6.94c0.29,0.24 0.7,0.34 1.12,0.27c0.81,-0.14 1.53,-0.86 1.67,-1.67c0.06,-0.37 0,-0.73 -0.19,-1.01c-0.05,-0.06 -0.1,-0.12 -0.15,-0.17c-0.09,-0.09 -0.19,-0.18 -0.31,-0.23c-0.04,-0.02 -0.08,-0.03 -0.11,-0.04c-0.15,-0.05 -0.3,-0.09 -0.47,-0.09c-1.03,-0 -1.97,0.94 -1.97,1.97c-0,0.18 0.04,0.34 0.1,0.5c0.02,0.06 0.06,0.1 0.09,0.16c0.07,0.12 0.13,0.23 0.24,0.32l-0.02,-0.01Z" style="fill:#fff;fill-rule:nonzero;"/><path d="M27.18,19.44l-1.79,-3.84l-2.9,3.98l1.37,4.04l3.32,-4.18Z" style="fill:#fff;fill-rule:nonzero;"/><path d="M8.29,10.73c1.03,-0.18 1.94,-1.09 2.12,-2.12c0.07,-0.38 0.02,-0.75 -0.12,-1.07l-1.74,-1.97l-0,0.09c-0.19,1.1 -1.16,2.07 -2.26,2.26c-0.13,0.02 -0.26,0.03 -0.39,0.03c-0.14,0 -0.28,-0.02 -0.41,-0.04c0.41,0.79 0.88,1.68 1.22,2.32c0.37,0.42 0.96,0.6 1.59,0.5l-0.01,0Z" style="fill:#fff;fill-rule:nonzero;"/><path d="M13.54,8.05l0,-5.19c-0.1,0.02 -0.21,0.03 -0.32,0.03c-0.11,-0 -0.21,-0.01 -0.32,-0.03l0,4.83l0.63,0.37l0.01,-0.01Z" style="fill:#fff;fill-rule:nonzero;"/><path d="M15.54,24.33l0.66,-3.8l0.06,-0.35l0.17,-0.98c0.01,-0.08 0,-0.17 -0.05,-0.24c-0.05,-0.07 -0.12,-0.11 -0.21,-0.13l-0.06,-0c-0.06,-0 -0.13,0.02 -0.18,0.06c-0.07,0.05 -0.11,0.12 -0.13,0.2l-0.12,0.72l-0.11,0.64l-0.63,3.63c0.22,0.04 0.42,0.13 0.6,0.25Z" style="fill:#fff;fill-rule:nonzero;"/><path d="M25.43,10.38l-3.67,1.81l0.67,0.38l3.28,-1.62c-0.13,-0.17 -0.22,-0.36 -0.28,-0.57Z" style="fill:#fff;fill-rule:nonzero;"/><path d="M30.03,16.61l-1.93,-5.28c-0.25,0.17 -0.54,0.28 -0.86,0.31l1.93,5.29c0.04,0.11 0.12,0.21 0.24,0.26c0.11,0.05 0.23,0.06 0.35,0.02c0.11,-0.04 0.2,-0.12 0.26,-0.24c0.05,-0.11 0.06,-0.23 0.02,-0.35l-0.01,-0.01Z" style="fill:#fff;fill-rule:nonzero;"/><path d="M26.96,8.18l-1.93,-5.29c-0.04,-0.11 -0.12,-0.2 -0.24,-0.26c-0.06,-0.03 -0.13,-0.04 -0.19,-0.04c-0.05,0 -0.11,0 -0.16,0.03c-0.24,0.09 -0.36,0.35 -0.27,0.59l1.93,5.28c0.25,-0.18 0.54,-0.28 0.86,-0.31Z" style="fill:#fff;fill-rule:nonzero;"/><path d="M27.1,8.89c-0.56,0 -1.02,0.46 -1.02,1.02c-0,0.56 0.46,1.02 1.02,1.02c0.56,0 1.02,-0.46 1.02,-1.02c-0,-0.56 -0.46,-1.02 -1.02,-1.02Z" style="fill:#fff;fill-rule:nonzero;"/><path d="M0.57,18.22l-0,5.63c-0,0.25 0.2,0.46 0.46,0.46c0.26,0 0.46,-0.2 0.46,-0.46l0,-5.63c-0.15,0.04 -0.3,0.07 -0.46,0.07c-0.16,0 -0.31,-0.03 -0.46,-0.07Z" style="fill:#fff;fill-rule:nonzero;"/><path d="M0.57,9.25l-0,5.63c0.15,-0.04 0.3,-0.07 0.46,-0.07c0.16,0 0.31,0.03 0.46,0.07l0,-5.63c0,-0.25 -0.2,-0.46 -0.46,-0.46c-0.26,0 -0.46,0.2 -0.46,0.46Z" style="fill:#fff;fill-rule:nonzero;"/><path d="M1.02,15.53c-0.56,0 -1.02,0.46 -1.02,1.02c0,0.56 0.46,1.02 1.02,1.02c0.56,0 1.02,-0.46 1.02,-1.02c-0,-0.56 -0.46,-1.02 -1.02,-1.02Z" style="fill:#fff;fill-rule:nonzero;"/><circle cx="13.22" cy="1.15" r="1.02" style="fill:#fff;"/><path d="M20.84,1.55c-0.08,-0.09 -0.19,-0.15 -0.31,-0.16l-5.6,-0.54c0.02,0.1 0.03,0.19 0.03,0.29c0,0.22 -0.04,0.42 -0.12,0.61l5.6,0.54c0.11,0.01 0.24,-0.03 0.33,-0.1c0.09,-0.08 0.15,-0.19 0.16,-0.31c0.01,-0.12 -0.02,-0.24 -0.1,-0.33l0.01,0Z" style="fill:#fff;fill-rule:nonzero;"/><path d="M11.48,1.15c-0,-0.22 0.04,-0.42 0.12,-0.61l-5.6,-0.54l-0.04,-0c-0.11,-0 -0.21,0.04 -0.29,0.11c-0.09,0.08 -0.15,0.19 -0.16,0.31c-0.01,0.12 0.03,0.24 0.1,0.33c0.08,0.09 0.19,0.15 0.31,0.16l5.6,0.54c-0.02,-0.1 -0.03,-0.19 -0.03,-0.29l-0.01,-0.01Z" style="fill:#fff;fill-rule:nonzero;"/><path d="M8.76,20.88c0,0.12 0.06,0.23 0.15,0.32l4.15,3.8c0.14,-0.28 0.35,-0.51 0.61,-0.68l-4.15,-3.8c-0.08,-0.08 -0.19,-0.12 -0.31,-0.12l-0.02,-0c-0.12,-0 -0.24,0.06 -0.32,0.15c-0.08,0.09 -0.12,0.21 -0.12,0.33l0.01,0Z" style="fill:#fff;fill-rule:nonzero;"/><path d="M15.53,27.26l4.15,3.8c0.09,0.08 0.2,0.11 0.33,0.12c0.12,-0 0.23,-0.06 0.32,-0.15c0.17,-0.19 0.16,-0.48 -0.03,-0.65l-4.15,-3.8c-0.14,0.28 -0.35,0.51 -0.61,0.68l-0.01,-0Z" style="fill:#fff;fill-rule:nonzero;"/><path d="M14.6,24.77c-0.56,0 -1.02,0.46 -1.02,1.02c0,0.56 0.46,1.02 1.02,1.02c0.56,0 1.02,-0.46 1.02,-1.02c0,-0.56 -0.46,-1.02 -1.02,-1.02Z" style="fill:#fff;fill-rule:nonzero;"/><path d="M21.51,12.88l-3.18,3.92l-1.04,0.14l3.99,2.32l0.6,-0.08l3.15,-4.32l-3.52,-1.97l-0,-0.01Zm-0.2,5.11c-0.34,-0 -0.62,-0.28 -0.62,-0.62c-0,-0.34 0.28,-0.62 0.62,-0.62c0.34,-0 0.62,0.28 0.62,0.62c-0,0.34 -0.28,0.62 -0.62,0.62Zm1.73,-2.25c-0.34,-0 -0.62,-0.28 -0.62,-0.62c0,-0.34 0.28,-0.62 0.62,-0.62c0.34,-0 0.62,0.28 0.62,0.62c0,0.34 -0.28,0.62 -0.62,0.62Z" style="fill:#fff;fill-rule:nonzero;"/><path d="M17.34,11.09l-6.31,-3.65c0.14,0.4 0.17,0.85 0.1,1.3c-0.23,1.32 -1.4,2.49 -2.72,2.71c-0.16,0.03 -0.32,0.04 -0.47,0.04l-0.03,0l8.36,4.86l1.68,-0.23l2.58,-3.18l-3.19,-1.86l0,0.01Zm-4.74,1.89c-0.06,0.1 -0.17,0.16 -0.28,0.16c-0.06,0 -0.12,-0.02 -0.17,-0.05l-1.2,-0.73c-0.16,-0.09 -0.21,-0.3 -0.11,-0.45c0.1,-0.15 0.3,-0.21 0.45,-0.11l1.2,0.73c0.16,0.09 0.21,0.3 0.11,0.45Zm1.89,-2.54c-0.06,0.1 -0.17,0.16 -0.28,0.16c-0.06,0 -0.12,-0.02 -0.17,-0.05l-1.2,-0.73c-0.16,-0.09 -0.21,-0.3 -0.11,-0.45c0.09,-0.16 0.3,-0.21 0.45,-0.11l1.2,0.73c0.16,0.09 0.21,0.3 0.11,0.45Z" style="fill:#fff;fill-rule:nonzero;"/></g></svg>